<svg height="32" width="32" xmlns="http://www.w3.org/2000/svg" viewBox="0 0 15.218 15.218" xml:space="preserve"><path style="fill:#f7cf52" d="M14.53 4.653a3.4 3.4 0 0 0-.444-.163 4.4 4.4 0 0 0-.628-.134 5 5 0 0 0-.304-.032 5 5 0 0 0-.032-.304 4.4 4.4 0 0 0-.134-.628 3.4 3.4 0 0 0-.163-.444c-.049-.107-.086-.168-.086-.168s-.038.061-.086.168c-.049.107-.109.26-.163.444a4.4 4.4 0 0 0-.134.628 5 5 0 0 0-.032.304 5 5 0 0 0-.635.09 4 4 0 0 0-.297.075 4 4 0 0 0-.251.083 3 3 0 0 0-.193.08c-.107.049-.168.087-.168.087s.061.038.168.087a3 3 0 0 0 .193.08 4 4 0 0 0 .251.084q.138.04.297.075a5 5 0 0 0 .331.058q.149.02.304.032.011.155.032.304a5 5 0 0 0 .058.331q.035.158.075.297a4 4 0 0 0 .084.251 3 3 0 0 0 .08.193c.049.107.087.168.087.168s.038-.061.087-.168a3 3 0 0 0 .08-.193 4 4 0 0 0 .084-.251q.04-.138.075-.297a5 5 0 0 0 .058-.331q.02-.149.032-.304.155-.011.304-.032c.23-.032.444-.08.628-.134s.337-.114.444-.163.168-.086.168-.086-.061-.038-.168-.086m-2.537 4.545c-.016-.012-.04-.034-.071-.054a1.6 1.6 0 0 0-.254-.144 2 2 0 0 0-.359-.118l-.061-.012q-.005-.031-.012-.061a2 2 0 0 0-.118-.359 1.6 1.6 0 0 0-.144-.254c-.021-.031-.042-.055-.054-.071l-.022-.025-.022.025c-.012.016-.034.04-.054.071a1.6 1.6 0 0 0-.144.254 2 2 0 0 0-.118.359l-.011.061-.062.012a2 2 0 0 0-.189.051 2 2 0 0 0-.17.066 2 2 0 0 0-.143.074 1 1 0 0 0-.11.071q-.047.034-.071.055l-.025.022.025.022c.016.012.04.034.071.055a1 1 0 0 0 .11.071 1.7 1.7 0 0 0 .502.191l.061.011.011.061a2 2 0 0 0 .051.189q.03.09.066.17a2 2 0 0 0 .074.143 1 1 0 0 0 .071.11q.034.047.055.071l.022.025.022-.025c.012-.016.034-.04.055-.071a1 1 0 0 0 .071-.11 2 2 0 0 0 .074-.143 1.7 1.7 0 0 0 .117-.359l.012-.062.061-.011a2 2 0 0 0 .359-.118c.105-.047.193-.101.254-.144.031-.021.055-.042.071-.054l.025-.022zM2.852 1.917c-.017-.013-.043-.036-.075-.057a1.7 1.7 0 0 0-.267-.152 2 2 0 0 0-.378-.124q-.032-.007-.065-.012l-.012-.065a2 2 0 0 0-.124-.378 1.6 1.6 0 0 0-.152-.267C1.757.83 1.735.804 1.722.787L1.699.76l-.023.027c-.013.017-.036.043-.057.075a1.7 1.7 0 0 0-.152.267 2 2 0 0 0-.124.378q-.007.031-.012.064l-.065.012a2 2 0 0 0-.199.054 2 2 0 0 0-.179.07 2 2 0 0 0-.151.078 2 2 0 0 0-.116.075c-.032.022-.058.045-.075.058l-.027.023.027.023c.017.013.043.036.075.058a2 2 0 0 0 .116.075 2 2 0 0 0 .151.078 2 2 0 0 0 .378.124l.064.012.012.064a2 2 0 0 0 .054.199q.033.095.07.179a2 2 0 0 0 .078.151 2 2 0 0 0 .075.116c.022.032.045.058.058.075l.023.027.023-.027c.013-.017.036-.043.058-.075a2 2 0 0 0 .075-.116 2 2 0 0 0 .078-.151q.037-.083.07-.179a2 2 0 0 0 .054-.199q.007-.032.012-.065l.064-.012a2 2 0 0 0 .378-.124c.111-.05.203-.106.267-.152.032-.022.058-.044.075-.057l.027-.023-.026-.023"/><path style="fill:#f7cf52" d="M10.288 0c.85 0 1.668.14 2.431.397a7.612 7.612 0 0 0 0 14.424A7.61 7.61 0 1 1 10.288 0"/><path style="fill:#e2bc50" d="M10.288 0q.348 0 .688.031a7.61 7.61 0 0 0 .003 15.156q-.341.03-.69.031c-4.202 0-7.609-3.406-7.609-7.609S6.086 0 10.288 0"/></svg>