<svg width="32" height="32" viewBox="0 0 5.12 5.12" xmlns="http://www.w3.org/2000/svg" aria-hidden="true" class="iconify iconify--noto"><path d="M1.496 1.678c-.388.499-.382 1.386.115 1.826.564.499 1.357.494 1.856.035.598-.55.564-1.466.035-1.985-.532-.522-1.482-.549-2.005.125" fill="#fcc11a"/><path d="M2.12 1.507c-.154-.068-.322.117-.395.244s-.141.375.015.439c.156.063.268-.044.38-.229s.175-.375 0-.453" fill="#fee269"/><path d="M2.52.811c-.037.07-.025.123.049.141s.534.092.573.095c.056.004.077-.039.07-.088l-.13-.802c-.01-.064-.076-.127-.14-.042s-.394.643-.422.696m1.192.478c-.072.022-.07.067-.032.123s.306.464.33.492.067.035.102-.007.474-.658.506-.696c.053-.063.021-.13-.06-.109-.062.016-.802.183-.848.197m.552 1.185c-.052-.03-.12-.021-.137.046s-.095.552-.102.594.025.084.077.074.778-.118.826-.13c.084-.021.112-.106.025-.169-.057-.041-.64-.387-.689-.415m-.578 1.15c.056-.03.106-.007.12.056s.169.71.194.83c.012.06-.056.109-.112.074a26 26 0 0 1-.707-.496c-.056-.049-.017-.1.01-.126.056-.053.443-.31.496-.338m-1.702.355c-.071-.007-.092.056-.081.112s.116.77.123.823c.01.077.092.109.144.032s.414-.656.443-.71c.053-.098.014-.12-.039-.144a6 6 0 0 0-.591-.112M.969 3.16c.049-.081.112-.06.158.018.031.053.295.408.32.446s.035.112-.042.13-.707.183-.806.201-.155-.06-.092-.144c.037-.05.433-.605.461-.651m-.134-.612c.09.04.132.026.151-.039.025-.084.098-.471.102-.559.002-.057-.021-.112-.109-.098s-.719.102-.8.13c-.094.033-.087.136-.025.169.074.039.619.369.682.397m1.094-1.477c.051-.04.035-.098-.01-.13s-.61-.44-.682-.496c-.063-.049-.141-.032-.12.081.015.081.195.788.208.837.014.056.056.084.106.049.048-.035.446-.298.499-.341" fill="#ffa722"/></svg>